<?xml version="1.0" encoding="UTF-8" standalone="no"?>
<!DOCTYPE svg PUBLIC "-//W3C//DTD SVG 1.1//EN" "http://www.w3.org/Graphics/SVG/1.1/DTD/svg11.dtd">
<svg width="100%" height="100%" viewBox="0 0 147 76" version="1.1" xmlns="http://www.w3.org/2000/svg" xmlns:xlink="http://www.w3.org/1999/xlink" xml:space="preserve" xmlns:serif="http://www.serif.com/" style="fill-rule:evenodd;clip-rule:evenodd;stroke-linejoin:round;stroke-miterlimit:2;">
    <g transform="matrix(1,0,0,1,-26.8227,-62.3651)">
        <g transform="matrix(1.49145,0,0,1.49145,-49.1454,-48.051)">
            <g transform="matrix(131.386,0,0,67.7414,45.2778,124.504)">
                <path d="M0.414,0L0.67,-0.546L0.723,0L0.79,0L0.698,-0.745L0.414,-0.109L0.14,-0.745L0.043,0L0.11,0L0.164,-0.546L0.414,0Z" style="fill:rgb(7,19,33);"/>
            </g>
            <g transform="matrix(0.972256,0,0,1,4.06044,3.276)">
                <rect x="51" y="90.724" width="95.355" height="18.552" style="fill:rgb(244,247,252);"/>
            </g>
            <g transform="matrix(1,0,0,1,-0.431651,27.7617)">
                <text x="55.879px" y="82.864px" style="font-family:'Futura-Med', 'Futura';font-weight:500;font-size:21.456px;fill:rgb(7,19,33);">M<tspan x="74.975px 89.843px 101.751px 113.745px 131.188px " y="82.864px 82.864px 82.864px 82.864px 82.864px ">USROX</tspan></text>
            </g>
        </g>
    </g>
</svg>
